<?xml version="1.0" standalone="no"?>
<!DOCTYPE svg PUBLIC "-//W3C//DTD SVG 20010904//EN"
 "http://www.w3.org/TR/2001/REC-SVG-20010904/DTD/svg10.dtd">
<svg version="1.0" xmlns="http://www.w3.org/2000/svg"
 width="64.000000pt" height="59.000000pt" viewBox="0 0 64.000000 59.000000"
 preserveAspectRatio="xMidYMid meet">

<g transform="translate(0.000000,59.000000) scale(0.100000,-0.100000)"
fill="#000000" stroke="none">
<path d="M244 537 c-177 -69 -218 -274 -82 -410 59 -59 100 -77 178 -77 142 0
243 99 244 240 1 139 -106 250 -249 257 -33 1 -74 -3 -91 -10z m157 -12 c76
-27 131 -90 150 -172 22 -95 -34 -208 -124 -252 -51 -25 -141 -28 -190 -8
-112 48 -170 172 -132 287 41 123 173 187 296 145z"/>
<path d="M215 390 c-4 -6 32 -10 99 -10 64 0 106 4 106 10 0 6 -40 10 -99 10
-56 0 -103 -4 -106 -10z"/>
<path d="M215 320 c-10 -17 17 -21 110 -18 60 2 90 7 93 16 5 15 -193 18 -203
2z"/>
<path d="M215 240 c3 -6 50 -10 106 -10 59 0 99 4 99 10 0 6 -42 10 -106 10
-67 0 -103 -4 -99 -10z"/>
</g>
</svg>
